<?xml version="1.0" encoding="UTF-8" standalone="no"?>
<!DOCTYPE svg PUBLIC "-//W3C//DTD SVG 1.1//EN"
 "http://www.w3.org/Graphics/SVG/1.1/DTD/svg11.dtd">
<!-- Generated by graphviz version 2.40.1 (20161225.0304)
 -->
<!-- Title: pipeline_dag20220218123407 Pages: 1 -->
<svg width="1438pt" height="633pt"
 viewBox="0.00 0.00 1437.79 632.80" xmlns="http://www.w3.org/2000/svg" xmlns:xlink="http://www.w3.org/1999/xlink">
<g id="graph0" class="graph" transform="scale(1 1) rotate(0) translate(4 628.8)">
<title>pipeline_dag20220218123407</title>
<polygon fill="#ffffff" stroke="transparent" points="-4,4 -4,-628.8 1433.7885,-628.8 1433.7885,4 -4,4"/>
<!-- p0 -->
<g id="node1" class="node">
<title>p0</title>
<ellipse fill="#000000" stroke="#000000" cx="201.933" cy="-607.2" rx="3.6" ry="3.6"/>
<text text-anchor="middle" x="147.2036" y="-613.6" font-family="Times,serif" font-size="14.00" fill="#000000">Channel.fromPath</text>
</g>
<!-- p2 -->
<g id="node2" class="node">
<title>p2</title>
<ellipse fill="none" stroke="#000000" cx="306.933" cy="-535.6" rx="68.1633" ry="18"/>
<text text-anchor="middle" x="306.933" y="-531.4" font-family="Times,serif" font-size="14.00" fill="#000000">FIND_INFILES</text>
</g>
<!-- p0&#45;&gt;p2 -->
<g id="edge1" class="edge">
<title>p0&#45;&gt;p2</title>
<path fill="none" stroke="#000000" d="M204.9622,-605.1344C214.9918,-598.2951 247.9442,-575.8247 273.7066,-558.2572"/>
<polygon fill="#000000" stroke="#000000" points="275.8342,-561.0428 282.1243,-552.5172 271.8904,-555.2594 275.8342,-561.0428"/>
<text text-anchor="middle" x="269.4296" y="-574.4" font-family="Times,serif" font-size="14.00" fill="#000000">inpath</text>
</g>
<!-- p3 -->
<g id="node4" class="node">
<title>p3</title>
<ellipse fill="none" stroke="#000000" cx="306.933" cy="-449.6" rx="89.386" ry="18"/>
<text text-anchor="middle" x="306.933" y="-445.4" font-family="Times,serif" font-size="14.00" fill="#000000">INFILE_HANDLING</text>
</g>
<!-- p0&#45;&gt;p3 -->
<g id="edge4" class="edge">
<title>p0&#45;&gt;p3</title>
<path fill="none" stroke="#000000" d="M200.4139,-603.8229C195.0589,-591.3745 178.259,-547.2432 194.9398,-517.6 207.2384,-495.7445 229.7154,-480.1017 251.3228,-469.374"/>
<polygon fill="#000000" stroke="#000000" points="252.9285,-472.4869 260.4977,-465.0735 249.9575,-466.1486 252.9285,-472.4869"/>
<text text-anchor="middle" x="213.4296" y="-531.4" font-family="Times,serif" font-size="14.00" fill="#000000">inpath</text>
</g>
<!-- p2&#45;&gt;p3 -->
<g id="edge3" class="edge">
<title>p2&#45;&gt;p3</title>
<path fill="none" stroke="#000000" d="M306.933,-517.3616C306.933,-505.9597 306.933,-491.0342 306.933,-478.094"/>
<polygon fill="#000000" stroke="#000000" points="310.4331,-477.8121 306.933,-467.8121 303.4331,-477.8121 310.4331,-477.8121"/>
</g>
<!-- p1 -->
<g id="node3" class="node">
<title>p1</title>
<ellipse fill="#000000" stroke="#000000" cx="396.933" cy="-535.6" rx="3.6" ry="3.6"/>
<text text-anchor="middle" x="432.0176" y="-542" font-family="Times,serif" font-size="14.00" fill="#000000">Channel.from</text>
</g>
<!-- p1&#45;&gt;p3 -->
<g id="edge2" class="edge">
<title>p1&#45;&gt;p3</title>
<path fill="none" stroke="#000000" d="M394.9226,-532.3822C392.522,-528.6505 388.2826,-522.3979 383.933,-517.6 369.6821,-501.8805 352.0472,-486.0857 337.2512,-473.6804"/>
<polygon fill="#000000" stroke="#000000" points="339.3003,-470.8333 329.3629,-467.1594 334.8403,-476.2285 339.3003,-470.8333"/>
<text text-anchor="middle" x="385.7538" y="-488.4" font-family="Times,serif" font-size="14.00" fill="#000000">refpath</text>
</g>
<!-- p5 -->
<g id="node5" class="node">
<title>p5</title>
<ellipse fill="none" stroke="#000000" cx="306.933" cy="-376.6" rx="65.6297" ry="18"/>
<text text-anchor="middle" x="306.933" y="-372.4" font-family="Times,serif" font-size="14.00" fill="#000000">RUN_PARSNP</text>
</g>
<!-- p3&#45;&gt;p5 -->
<g id="edge5" class="edge">
<title>p3&#45;&gt;p5</title>
<path fill="none" stroke="#000000" d="M301.0173,-431.5551C300.2188,-423.4828 299.9935,-413.7764 300.3413,-404.7817"/>
<polygon fill="#000000" stroke="#000000" points="303.841,-404.9007 301.0128,-394.6904 296.8564,-404.4359 303.841,-404.9007"/>
</g>
<!-- p3&#45;&gt;p5 -->
<g id="edge6" class="edge">
<title>p3&#45;&gt;p5</title>
<path fill="none" stroke="#000000" d="M312.8487,-431.5551C313.6472,-423.4828 313.8725,-413.7764 313.5247,-404.7817"/>
<polygon fill="#000000" stroke="#000000" points="317.0095,-404.4359 312.8532,-394.6904 310.025,-404.9007 317.0095,-404.4359"/>
</g>
<!-- p4 -->
<g id="node6" class="node">
<title>p4</title>
<ellipse fill="#000000" stroke="#000000" cx="392.933" cy="-376.6" rx="1.8" ry="1.8"/>
</g>
<!-- p3&#45;&gt;p4 -->
<g id="edge7" class="edge">
<title>p3&#45;&gt;p4</title>
<path fill="none" stroke="#000000" d="M335.7462,-432.3296C350.6542,-422.4901 368.493,-409.2221 381.933,-394.6 383.9405,-392.416 385.7788,-389.812 387.3541,-387.2724"/>
<polygon fill="#000000" stroke="#000000" points="390.4495,-388.9063 392.1065,-378.4418 384.2854,-385.589 390.4495,-388.9063"/>
</g>
<!-- p6 -->
<g id="node7" class="node">
<title>p6</title>
<ellipse fill="none" stroke="#000000" cx="104.933" cy="-303.6" rx="76.3916" ry="18"/>
<text text-anchor="middle" x="104.933" y="-299.4" font-family="Times,serif" font-size="14.00" fill="#000000">EXTRACT_SNPS</text>
</g>
<!-- p5&#45;&gt;p6 -->
<g id="edge8" class="edge">
<title>p5&#45;&gt;p6</title>
<path fill="none" stroke="#000000" d="M265.5924,-362.5843C246.4799,-356.0291 223.5053,-348.0425 202.933,-340.6 187.0714,-334.8617 169.8394,-328.4246 154.3119,-322.5484"/>
<polygon fill="#000000" stroke="#000000" points="155.4829,-319.2493 144.8917,-318.9733 152.9992,-325.7938 155.4829,-319.2493"/>
</g>
<!-- p10 -->
<g id="node8" class="node">
<title>p10</title>
<ellipse fill="none" stroke="#000000" cx="551.933" cy="-303.6" rx="81.92" ry="18"/>
<text text-anchor="middle" x="551.933" y="-299.4" font-family="Times,serif" font-size="14.00" fill="#000000">EXTRACT_FASTA</text>
</g>
<!-- p5&#45;&gt;p10 -->
<g id="edge9" class="edge">
<title>p5&#45;&gt;p10</title>
<path fill="none" stroke="#000000" d="M351.5849,-363.2956C391.3628,-351.4434 449.8398,-334.0196 493.3609,-321.0521"/>
<polygon fill="#000000" stroke="#000000" points="494.3801,-324.4006 502.9642,-318.1907 492.3811,-317.692 494.3801,-324.4006"/>
</g>
<!-- p12 -->
<g id="node9" class="node">
<title>p12</title>
<ellipse fill="none" stroke="#000000" cx="551.933" cy="-217.6" rx="220.7897" ry="18"/>
<text text-anchor="middle" x="551.933" y="-213.4" font-family="Times,serif" font-size="14.00" fill="#000000">RUN_GUBBINS:INFER_RECOMBINATION_GUBBINS</text>
</g>
<!-- p5&#45;&gt;p12 -->
<g id="edge10" class="edge">
<title>p5&#45;&gt;p12</title>
<path fill="none" stroke="#000000" d="M320.6466,-358.8417C336.8036,-338.8804 365.3109,-306.5332 395.6293,-285.6 423.9758,-266.0282 458.8599,-250.196 488.4756,-238.749"/>
<polygon fill="#000000" stroke="#000000" points="489.7762,-241.9991 497.891,-235.1873 487.2995,-235.4519 489.7762,-241.9991"/>
<text text-anchor="middle" x="427.5848" y="-299.4" font-family="Times,serif" font-size="14.00" fill="#000000">parsnp_tree</text>
</g>
<!-- p17 -->
<g id="node19" class="node">
<title>p17</title>
<ellipse fill="none" stroke="#000000" cx="1113.933" cy="-217.6" rx="191.339" ry="18"/>
<text text-anchor="middle" x="1113.933" y="-213.4" font-family="Times,serif" font-size="14.00" fill="#000000">RUN_CFML:INFER_RECOMBINATION_CFML</text>
</g>
<!-- p5&#45;&gt;p17 -->
<g id="edge24" class="edge">
<title>p5&#45;&gt;p17</title>
<path fill="none" stroke="#000000" d="M355.2014,-364.3045C364.061,-362.2506 373.2512,-360.2533 381.933,-358.6 655.9559,-306.4157 735.3209,-346.3117 1002.933,-267.6 1026.4953,-260.6697 1051.5375,-249.7289 1071.8613,-239.8464"/>
<polygon fill="#000000" stroke="#000000" points="1073.4362,-242.9722 1080.845,-235.3985 1070.3303,-236.699 1073.4362,-242.9722"/>
<text text-anchor="middle" x="967.5848" y="-299.4" font-family="Times,serif" font-size="14.00" fill="#000000">parsnp_tree</text>
</g>
<!-- p7 -->
<g id="node10" class="node">
<title>p7</title>
<ellipse fill="none" stroke="#000000" cx="102.933" cy="-217.6" rx="102.866" ry="18"/>
<text text-anchor="middle" x="102.933" y="-213.4" font-family="Times,serif" font-size="14.00" fill="#000000">PAIRWISE_DISTANCES</text>
</g>
<!-- p6&#45;&gt;p7 -->
<g id="edge11" class="edge">
<title>p6&#45;&gt;p7</title>
<path fill="none" stroke="#000000" d="M104.5088,-285.3616C104.2437,-273.9597 103.8966,-259.0342 103.5956,-246.094"/>
<polygon fill="#000000" stroke="#000000" points="107.0882,-245.728 103.3565,-235.8121 100.0901,-245.8908 107.0882,-245.728"/>
</g>
<!-- p10&#45;&gt;p12 -->
<g id="edge14" class="edge">
<title>p10&#45;&gt;p12</title>
<path fill="none" stroke="#000000" d="M551.933,-285.3616C551.933,-273.9597 551.933,-259.0342 551.933,-246.094"/>
<polygon fill="#000000" stroke="#000000" points="555.4331,-245.8121 551.933,-235.8121 548.4331,-245.8121 555.4331,-245.8121"/>
<text text-anchor="middle" x="587.309" y="-256.4" font-family="Times,serif" font-size="14.00" fill="#000000">parsnp_fasta</text>
</g>
<!-- p13 -->
<g id="node14" class="node">
<title>p13</title>
<ellipse fill="none" stroke="#000000" cx="551.933" cy="-131.6" rx="177.8155" ry="18"/>
<text text-anchor="middle" x="551.933" y="-127.4" font-family="Times,serif" font-size="14.00" fill="#000000">RUN_GUBBINS:MASK_RECOMBINATION</text>
</g>
<!-- p10&#45;&gt;p13 -->
<g id="edge18" class="edge">
<title>p10&#45;&gt;p13</title>
<path fill="none" stroke="#000000" d="M475.3945,-297.0099C395.7207,-288.3763 278.7519,-270.1006 251.181,-235.6 241.1925,-223.1009 241.1925,-212.0991 251.181,-199.6 272.3631,-173.094 346.3122,-156.1647 415.5762,-145.8271"/>
<polygon fill="#000000" stroke="#000000" points="416.3614,-149.2499 425.7547,-144.3493 415.3556,-142.3225 416.3614,-149.2499"/>
<text text-anchor="middle" x="287.309" y="-213.4" font-family="Times,serif" font-size="14.00" fill="#000000">parsnp_fasta</text>
</g>
<!-- p18 -->
<g id="node18" class="node">
<title>p18</title>
<ellipse fill="none" stroke="#000000" cx="1113.933" cy="-131.6" rx="162.8401" ry="18"/>
<text text-anchor="middle" x="1113.933" y="-127.4" font-family="Times,serif" font-size="14.00" fill="#000000">RUN_CFML:MASK_RECOMBINATION</text>
</g>
<!-- p10&#45;&gt;p18 -->
<g id="edge27" class="edge">
<title>p10&#45;&gt;p18</title>
<path fill="none" stroke="#000000" d="M623.3544,-294.7151C676.697,-285.744 749.917,-268.3424 806.933,-235.6 826.6228,-224.2928 823.4096,-210.7638 843.181,-199.6 889.6717,-173.3495 946.2865,-157.0993 995.7036,-147.1038"/>
<polygon fill="#000000" stroke="#000000" points="996.6676,-150.4816 1005.809,-145.1257 995.3229,-143.6119 996.6676,-150.4816"/>
<text text-anchor="middle" x="878.309" y="-213.4" font-family="Times,serif" font-size="14.00" fill="#000000">parsnp_fasta</text>
</g>
<!-- p10&#45;&gt;p17 -->
<g id="edge23" class="edge">
<title>p10&#45;&gt;p17</title>
<path fill="none" stroke="#000000" d="M626.3205,-295.9029C686.2924,-289.3729 772.7284,-279.2288 847.933,-267.6 906.8142,-258.4952 972.6234,-246.1435 1024.0528,-235.9949"/>
<polygon fill="#000000" stroke="#000000" points="1025.0116,-239.3731 1034.1407,-233.9962 1023.6511,-232.5065 1025.0116,-239.3731"/>
<text text-anchor="middle" x="963.309" y="-256.4" font-family="Times,serif" font-size="14.00" fill="#000000">parsnp_fasta</text>
</g>
<!-- p12&#45;&gt;p13 -->
<g id="edge16" class="edge">
<title>p12&#45;&gt;p13</title>
<path fill="none" stroke="#000000" d="M546.297,-199.3616C545.1359,-187.9597 544.8824,-173.0342 545.5366,-160.094"/>
<polygon fill="#000000" stroke="#000000" points="549.0499,-160.0437 546.2997,-149.8121 542.0691,-159.5256 549.0499,-160.0437"/>
</g>
<!-- p12&#45;&gt;p13 -->
<g id="edge17" class="edge">
<title>p12&#45;&gt;p13</title>
<path fill="none" stroke="#000000" d="M557.569,-199.3616C558.7301,-187.9597 558.9836,-173.0342 558.3293,-160.094"/>
<polygon fill="#000000" stroke="#000000" points="561.7969,-159.5256 557.5663,-149.8121 554.8161,-160.0437 561.7969,-159.5256"/>
</g>
<!-- p8 -->
<g id="node11" class="node">
<title>p8</title>
<ellipse fill="none" stroke="#000000" cx="102.933" cy="-131.6" rx="91.4024" ry="18"/>
<text text-anchor="middle" x="102.933" y="-127.4" font-family="Times,serif" font-size="14.00" fill="#000000">DISTANCE_MATRIX</text>
</g>
<!-- p7&#45;&gt;p8 -->
<g id="edge12" class="edge">
<title>p7&#45;&gt;p8</title>
<path fill="none" stroke="#000000" d="M102.933,-199.3616C102.933,-187.9597 102.933,-173.0342 102.933,-160.094"/>
<polygon fill="#000000" stroke="#000000" points="106.4331,-159.8121 102.933,-149.8121 99.4331,-159.8121 106.4331,-159.8121"/>
</g>
<!-- p9 -->
<g id="node12" class="node">
<title>p9</title>
<ellipse fill="#000000" stroke="#000000" cx="102.933" cy="-58.6" rx="1.8" ry="1.8"/>
</g>
<!-- p8&#45;&gt;p9 -->
<g id="edge13" class="edge">
<title>p8&#45;&gt;p9</title>
<path fill="none" stroke="#000000" d="M102.933,-113.5551C102.933,-100.2025 102.933,-82.3784 102.933,-70.701"/>
<polygon fill="#000000" stroke="#000000" points="106.4331,-70.4525 102.933,-60.4525 99.4331,-70.4525 106.4331,-70.4525"/>
</g>
<!-- p11 -->
<g id="node13" class="node">
<title>p11</title>
<ellipse fill="#000000" stroke="#000000" cx="793.933" cy="-217.6" rx="3.6" ry="3.6"/>
<text text-anchor="middle" x="815.9753" y="-202.8" font-family="Times,serif" font-size="14.00" fill="#000000">Channel.from</text>
</g>
<!-- p11&#45;&gt;p13 -->
<g id="edge15" class="edge">
<title>p11&#45;&gt;p13</title>
<path fill="none" stroke="#000000" d="M792.6807,-214.1534C790.9579,-209.9514 787.4308,-202.9919 781.933,-199.6 726.3446,-165.3046 697.8808,-202.7327 636.0775,-181.6 617.9322,-175.3955 599.4332,-164.9448 584.4184,-155.1973"/>
<polygon fill="#000000" stroke="#000000" points="586.2683,-152.224 576.0095,-149.5768 582.3784,-158.0437 586.2683,-152.224"/>
<text text-anchor="middle" x="700.8607" y="-170.4" font-family="Times,serif" font-size="14.00" fill="#000000">recombination_method</text>
</g>
<!-- p14 -->
<g id="node15" class="node">
<title>p14</title>
<ellipse fill="none" stroke="#000000" cx="716.933" cy="-58.6" rx="137.7071" ry="18"/>
<text text-anchor="middle" x="716.933" y="-54.4" font-family="Times,serif" font-size="14.00" fill="#000000">RUN_GUBBINS:REINFER_TREE</text>
</g>
<!-- p11&#45;&gt;p14 -->
<g id="edge20" class="edge">
<title>p11&#45;&gt;p14</title>
<path fill="none" stroke="#000000" d="M792.3247,-214.2791C784.4638,-198.0468 749.6768,-126.2139 730.2209,-86.0388"/>
<polygon fill="#000000" stroke="#000000" points="733.2534,-84.2704 725.7448,-76.7957 726.9533,-87.3214 733.2534,-84.2704"/>
<text text-anchor="middle" x="824.8607" y="-127.4" font-family="Times,serif" font-size="14.00" fill="#000000">recombination_method</text>
</g>
<!-- p13&#45;&gt;p14 -->
<g id="edge19" class="edge">
<title>p13&#45;&gt;p14</title>
<path fill="none" stroke="#000000" d="M591.8749,-113.9287C614.8611,-103.7591 643.9171,-90.904 668.2354,-80.145"/>
<polygon fill="#000000" stroke="#000000" points="669.9151,-83.2292 677.6439,-75.9824 667.0828,-76.8277 669.9151,-83.2292"/>
</g>
<!-- p15 -->
<g id="node16" class="node">
<title>p15</title>
<ellipse fill="#000000" stroke="#000000" cx="716.933" cy="-1.8" rx="1.8" ry="1.8"/>
</g>
<!-- p14&#45;&gt;p15 -->
<g id="edge21" class="edge">
<title>p14&#45;&gt;p15</title>
<path fill="none" stroke="#000000" d="M716.933,-40.3155C716.933,-31.6139 716.933,-21.4551 716.933,-13.756"/>
<polygon fill="#000000" stroke="#000000" points="720.4331,-13.6036 716.933,-3.6036 713.4331,-13.6037 720.4331,-13.6036"/>
</g>
<!-- p16 -->
<g id="node17" class="node">
<title>p16</title>
<ellipse fill="#000000" stroke="#000000" cx="1326.933" cy="-217.6" rx="3.6" ry="3.6"/>
<text text-anchor="middle" x="1362.0176" y="-224" font-family="Times,serif" font-size="14.00" fill="#000000">Channel.from</text>
</g>
<!-- p16&#45;&gt;p18 -->
<g id="edge22" class="edge">
<title>p16&#45;&gt;p18</title>
<path fill="none" stroke="#000000" d="M1325.492,-214.1544C1323.5388,-209.9535 1319.6281,-202.995 1313.933,-199.6 1260.859,-167.9606 1232.9002,-205.8712 1176.0775,-181.6 1162.378,-175.7484 1149.2181,-165.9853 1138.5636,-156.6314"/>
<polygon fill="#000000" stroke="#000000" points="1140.6704,-153.8143 1130.9369,-149.6298 1135.9365,-158.9708 1140.6704,-153.8143"/>
<text text-anchor="middle" x="1240.8607" y="-170.4" font-family="Times,serif" font-size="14.00" fill="#000000">recombination_method</text>
</g>
<!-- p19 -->
<g id="node20" class="node">
<title>p19</title>
<ellipse fill="none" stroke="#000000" cx="1261.933" cy="-58.6" rx="123.2317" ry="18"/>
<text text-anchor="middle" x="1261.933" y="-54.4" font-family="Times,serif" font-size="14.00" fill="#000000">RUN_CFML:REINFER_TREE</text>
</g>
<!-- p16&#45;&gt;p19 -->
<g id="edge29" class="edge">
<title>p16&#45;&gt;p19</title>
<path fill="none" stroke="#000000" d="M1325.5633,-213.9887C1320.4804,-200.6172 1302.155,-152.676 1285.933,-113.6 1282.2182,-104.6516 1278.035,-94.9463 1274.2141,-86.2149"/>
<polygon fill="#000000" stroke="#000000" points="1277.33,-84.6059 1270.0983,-76.863 1270.923,-87.4256 1277.33,-84.6059"/>
<text text-anchor="middle" x="1364.8607" y="-127.4" font-family="Times,serif" font-size="14.00" fill="#000000">recombination_method</text>
</g>
<!-- p18&#45;&gt;p19 -->
<g id="edge28" class="edge">
<title>p18&#45;&gt;p19</title>
<path fill="none" stroke="#000000" d="M1149.7597,-113.9287C1170.1951,-103.8491 1195.9791,-91.1313 1217.6726,-80.4311"/>
<polygon fill="#000000" stroke="#000000" points="1219.2718,-83.545 1226.6919,-75.9824 1216.1752,-77.2672 1219.2718,-83.545"/>
</g>
<!-- p17&#45;&gt;p18 -->
<g id="edge25" class="edge">
<title>p17&#45;&gt;p18</title>
<path fill="none" stroke="#000000" d="M1108.297,-199.3616C1107.1359,-187.9597 1106.8824,-173.0342 1107.5366,-160.094"/>
<polygon fill="#000000" stroke="#000000" points="1111.0499,-160.0437 1108.2997,-149.8121 1104.0691,-159.5256 1111.0499,-160.0437"/>
</g>
<!-- p17&#45;&gt;p18 -->
<g id="edge26" class="edge">
<title>p17&#45;&gt;p18</title>
<path fill="none" stroke="#000000" d="M1119.569,-199.3616C1120.7301,-187.9597 1120.9836,-173.0342 1120.3293,-160.094"/>
<polygon fill="#000000" stroke="#000000" points="1123.7969,-159.5256 1119.5663,-149.8121 1116.8161,-160.0437 1123.7969,-159.5256"/>
</g>
<!-- p20 -->
<g id="node21" class="node">
<title>p20</title>
<ellipse fill="#000000" stroke="#000000" cx="1261.933" cy="-1.8" rx="1.8" ry="1.8"/>
</g>
<!-- p19&#45;&gt;p20 -->
<g id="edge30" class="edge">
<title>p19&#45;&gt;p20</title>
<path fill="none" stroke="#000000" d="M1261.933,-40.3155C1261.933,-31.6139 1261.933,-21.4551 1261.933,-13.756"/>
<polygon fill="#000000" stroke="#000000" points="1265.4331,-13.6036 1261.933,-3.6036 1258.4331,-13.6037 1265.4331,-13.6036"/>
</g>
</g>
</svg>
