<?xml version="1.0" encoding="UTF-8" standalone="no"?>
<!DOCTYPE svg PUBLIC "-//W3C//DTD SVG 1.1//EN"
 "http://www.w3.org/Graphics/SVG/1.1/DTD/svg11.dtd">
<!-- Generated by graphviz version 2.40.1 (20161225.0304)
 -->
<!-- Title: pipeline_dag20220415084909 Pages: 1 -->
<svg width="2120pt" height="757pt"
 viewBox="0.00 0.00 2119.71 756.80" xmlns="http://www.w3.org/2000/svg" xmlns:xlink="http://www.w3.org/1999/xlink">
<g id="graph0" class="graph" transform="scale(1 1) rotate(0) translate(4 752.8)">
<title>pipeline_dag20220415084909</title>
<polygon fill="#ffffff" stroke="transparent" points="-4,4 -4,-752.8 2115.7057,-752.8 2115.7057,4 -4,4"/>
<!-- p0 -->
<g id="node1" class="node">
<title>p0</title>
<ellipse fill="#000000" stroke="#000000" cx="967.8297" cy="-731.2" rx="3.6" ry="3.6"/>
<text text-anchor="middle" x="913.1003" y="-737.6" font-family="Times,serif" font-size="14.00" fill="#000000">Channel.fromPath</text>
</g>
<!-- p4 -->
<g id="node2" class="node">
<title>p4</title>
<ellipse fill="none" stroke="#000000" cx="1006.8297" cy="-659.6" rx="89.386" ry="18"/>
<text text-anchor="middle" x="1006.8297" y="-655.4" font-family="Times,serif" font-size="14.00" fill="#000000">INFILE_HANDLING</text>
</g>
<!-- p0&#45;&gt;p4 -->
<g id="edge1" class="edge">
<title>p0&#45;&gt;p4</title>
<path fill="none" stroke="#000000" d="M967.0487,-727.6708C965.7637,-721.0471 963.7968,-706.4443 968.6227,-695.6 970.3735,-691.6657 972.7796,-687.9573 975.5394,-684.5255"/>
<polygon fill="#000000" stroke="#000000" points="978.2447,-686.7556 982.4791,-677.0437 973.1125,-681.9953 978.2447,-686.7556"/>
<text text-anchor="middle" x="996.4332" y="-698.4" font-family="Times,serif" font-size="14.00" fill="#000000">ch_inpath</text>
</g>
<!-- p8 -->
<g id="node7" class="node">
<title>p8</title>
<ellipse fill="none" stroke="#000000" cx="1405.8297" cy="-573.6" rx="3.5" ry="3.5"/>
<text text-anchor="middle" x="1391.44" y="-579.9" font-family="Times,serif" font-size="14.00" fill="#000000">mix</text>
</g>
<!-- p4&#45;&gt;p8 -->
<g id="edge10" class="edge">
<title>p4&#45;&gt;p8</title>
<path fill="none" stroke="#000000" d="M1067.8635,-646.4448C1163.2557,-625.8841 1341.9915,-587.3596 1392.3287,-576.51"/>
<polygon fill="#000000" stroke="#000000" points="1393.193,-579.9042 1402.231,-574.3757 1391.718,-573.0613 1393.193,-579.9042"/>
</g>
<!-- p9 -->
<g id="node8" class="node">
<title>p9</title>
<ellipse fill="none" stroke="#000000" cx="931.8297" cy="-573.6" rx="42.944" ry="18"/>
<text text-anchor="middle" x="931.8297" y="-569.4" font-family="Times,serif" font-size="14.00" fill="#000000">PARSNP</text>
</g>
<!-- p4&#45;&gt;p9 -->
<g id="edge5" class="edge">
<title>p4&#45;&gt;p9</title>
<path fill="none" stroke="#000000" d="M985.6969,-641.7807C973.7589,-629.5578 959.2251,-613.1438 948.1524,-599.4837"/>
<polygon fill="#000000" stroke="#000000" points="950.7066,-597.0709 941.7595,-591.3964 945.2151,-601.4119 950.7066,-597.0709"/>
</g>
<!-- p4&#45;&gt;p9 -->
<g id="edge6" class="edge">
<title>p4&#45;&gt;p9</title>
<path fill="none" stroke="#000000" d="M996.5601,-641.3616C986.6265,-628.4651 971.6004,-611.0607 958.4337,-597.1201"/>
<polygon fill="#000000" stroke="#000000" points="960.8164,-594.5488 951.3543,-589.7823 955.7787,-599.4091 960.8164,-594.5488"/>
</g>
<!-- p7 -->
<g id="node9" class="node">
<title>p7</title>
<ellipse fill="#000000" stroke="#000000" cx="1019.8297" cy="-573.6" rx="1.8" ry="1.8"/>
</g>
<!-- p4&#45;&gt;p7 -->
<g id="edge7" class="edge">
<title>p4&#45;&gt;p7</title>
<path fill="none" stroke="#000000" d="M1009.5867,-641.3616C1012.117,-624.6223 1015.7954,-600.2886 1017.9867,-585.7919"/>
<polygon fill="#000000" stroke="#000000" points="1021.512,-585.887 1019.5461,-575.4762 1014.5907,-584.8407 1021.512,-585.887"/>
</g>
<!-- p6 -->
<g id="node10" class="node">
<title>p6</title>
<ellipse fill="#000000" stroke="#000000" cx="1044.8297" cy="-573.6" rx="1.8" ry="1.8"/>
</g>
<!-- p4&#45;&gt;p6 -->
<g id="edge8" class="edge">
<title>p4&#45;&gt;p6</title>
<path fill="none" stroke="#000000" d="M1018.2416,-641.6634C1021.5783,-636.0094 1025.0673,-629.6566 1027.8297,-623.6 1033.608,-610.9307 1038.5135,-595.6959 1041.5481,-585.3986"/>
<polygon fill="#000000" stroke="#000000" points="1044.9767,-586.1351 1044.3162,-575.5609 1038.2384,-584.2391 1044.9767,-586.1351"/>
</g>
<!-- p5 -->
<g id="node11" class="node">
<title>p5</title>
<ellipse fill="#000000" stroke="#000000" cx="994.8297" cy="-573.6" rx="1.8" ry="1.8"/>
</g>
<!-- p4&#45;&gt;p5 -->
<g id="edge9" class="edge">
<title>p4&#45;&gt;p5</title>
<path fill="none" stroke="#000000" d="M1004.2848,-641.3616C1001.9491,-624.6223 998.5537,-600.2886 996.5309,-585.7919"/>
<polygon fill="#000000" stroke="#000000" points="999.94,-584.8965 995.0915,-575.4762 993.0071,-585.864 999.94,-584.8965"/>
</g>
<!-- p1 -->
<g id="node3" class="node">
<title>p1</title>
<ellipse fill="#000000" stroke="#000000" cx="1595.8297" cy="-401.6" rx="3.6" ry="3.6"/>
<text text-anchor="middle" x="1541.1003" y="-408" font-family="Times,serif" font-size="14.00" fill="#000000">Channel.fromPath</text>
</g>
<!-- p26 -->
<g id="node4" class="node">
<title>p26</title>
<ellipse fill="none" stroke="#000000" cx="1720.8297" cy="-315.6" rx="92.3016" ry="18"/>
<text text-anchor="middle" x="1720.8297" y="-311.4" font-family="Times,serif" font-size="14.00" fill="#000000">OUTFILE_CLEANUP</text>
</g>
<!-- p1&#45;&gt;p26 -->
<g id="edge2" class="edge">
<title>p1&#45;&gt;p26</title>
<path fill="none" stroke="#000000" d="M1597.7461,-398.292C1600.0584,-394.4756 1604.2149,-388.1435 1608.8297,-383.6 1628.0484,-364.6782 1653.4887,-348.6975 1675.2654,-336.9923"/>
<polygon fill="#000000" stroke="#000000" points="1677.1074,-339.9787 1684.3452,-332.2414 1673.8621,-333.7764 1677.1074,-339.9787"/>
<text text-anchor="middle" x="1678.9332" y="-354.4" font-family="Times,serif" font-size="14.00" fill="#000000">ch_outpath</text>
</g>
<!-- p29 -->
<g id="node30" class="node">
<title>p29</title>
<ellipse fill="none" stroke="#000000" cx="1691.8297" cy="-158.1" rx="3.5" ry="3.5"/>
<text text-anchor="middle" x="1677.44" y="-164.4" font-family="Times,serif" font-size="14.00" fill="#000000">mix</text>
</g>
<!-- p26&#45;&gt;p29 -->
<g id="edge37" class="edge">
<title>p26&#45;&gt;p29</title>
<path fill="none" stroke="#000000" d="M1717.503,-297.5327C1711.6452,-265.7186 1699.6141,-200.3776 1694.3687,-171.8892"/>
<polygon fill="#000000" stroke="#000000" points="1697.7808,-171.0919 1692.5277,-161.891 1690.8965,-172.3595 1697.7808,-171.0919"/>
</g>
<!-- p28 -->
<g id="node31" class="node">
<title>p28</title>
<ellipse fill="#000000" stroke="#000000" cx="1745.8297" cy="-229.6" rx="1.8" ry="1.8"/>
</g>
<!-- p26&#45;&gt;p28 -->
<g id="edge35" class="edge">
<title>p26&#45;&gt;p28</title>
<path fill="none" stroke="#000000" d="M1726.5091,-297.3108C1728.2448,-291.6426 1730.1405,-285.3703 1731.8297,-279.6 1735.676,-266.4608 1739.886,-251.3136 1742.6744,-241.1654"/>
<polygon fill="#000000" stroke="#000000" points="1746.0525,-242.0809 1745.3118,-231.512 1739.3,-240.236 1746.0525,-242.0809"/>
</g>
<!-- p27 -->
<g id="node32" class="node">
<title>p27</title>
<ellipse fill="#000000" stroke="#000000" cx="1721.8297" cy="-229.6" rx="1.8" ry="1.8"/>
</g>
<!-- p26&#45;&gt;p27 -->
<g id="edge36" class="edge">
<title>p26&#45;&gt;p27</title>
<path fill="none" stroke="#000000" d="M1721.0418,-297.3616C1721.2364,-280.6223 1721.5194,-256.2886 1721.6879,-241.7919"/>
<polygon fill="#000000" stroke="#000000" points="1725.1913,-241.5163 1721.8079,-231.4762 1718.1917,-241.4348 1725.1913,-241.5163"/>
</g>
<!-- p2 -->
<g id="node5" class="node">
<title>p2</title>
<ellipse fill="#000000" stroke="#000000" cx="1045.8297" cy="-731.2" rx="3.6" ry="3.6"/>
<text text-anchor="middle" x="991.1003" y="-716.4" font-family="Times,serif" font-size="14.00" fill="#000000">Channel.fromPath</text>
</g>
<!-- p2&#45;&gt;p4 -->
<g id="edge3" class="edge">
<title>p2&#45;&gt;p4</title>
<path fill="none" stroke="#000000" d="M1043.9486,-727.7466C1039.9039,-720.3209 1030.0533,-702.2361 1021.5158,-686.5622"/>
<polygon fill="#000000" stroke="#000000" points="1024.5517,-684.8187 1016.6947,-677.7111 1018.4045,-688.167 1024.5517,-684.8187"/>
<text text-anchor="middle" x="1062.7574" y="-698.4" font-family="Times,serif" font-size="14.00" fill="#000000">ch_refpath</text>
</g>
<!-- p3 -->
<g id="node6" class="node">
<title>p3</title>
<ellipse fill="#000000" stroke="#000000" cx="1405.8297" cy="-659.6" rx="3.6" ry="3.6"/>
<text text-anchor="middle" x="1359.6555" y="-666" font-family="Times,serif" font-size="14.00" fill="#000000">Channel.empty</text>
</g>
<!-- p3&#45;&gt;p8 -->
<g id="edge4" class="edge">
<title>p3&#45;&gt;p8</title>
<path fill="none" stroke="#000000" d="M1405.8297,-655.9047C1405.8297,-644.1899 1405.8297,-607.4641 1405.8297,-587.2596"/>
<polygon fill="#000000" stroke="#000000" points="1409.3298,-587.1858 1405.8297,-577.1858 1402.3298,-587.1859 1409.3298,-587.1858"/>
<text text-anchor="middle" x="1439.2677" y="-612.4" font-family="Times,serif" font-size="14.00" fill="#000000">ch_versions</text>
</g>
<!-- p12 -->
<g id="node12" class="node">
<title>p12</title>
<ellipse fill="none" stroke="#000000" cx="1714.8297" cy="-487.6" rx="3.5" ry="3.5"/>
<text text-anchor="middle" x="1722.2193" y="-493.9" font-family="Times,serif" font-size="14.00" fill="#000000">mix</text>
</g>
<!-- p8&#45;&gt;p12 -->
<g id="edge11" class="edge">
<title>p8&#45;&gt;p12</title>
<path fill="none" stroke="#000000" d="M1409.6186,-573.1025C1440.4072,-569.0066 1649.757,-540.1318 1701.8297,-505.6 1704.0745,-504.1114 1706.0624,-502.0944 1707.7664,-499.9483"/>
<polygon fill="#000000" stroke="#000000" points="1711.0442,-501.303 1713.334,-490.9586 1705.0931,-497.6173 1711.0442,-501.303"/>
<text text-anchor="middle" x="1689.2677" y="-526.4" font-family="Times,serif" font-size="14.00" fill="#000000">ch_versions</text>
</g>
<!-- p9&#45;&gt;p12 -->
<g id="edge17" class="edge">
<title>p9&#45;&gt;p12</title>
<path fill="none" stroke="#000000" d="M963.0811,-561.2947C969.8323,-559.058 976.9967,-556.995 983.8297,-555.6 1023.0071,-547.6018 1666.8823,-525.0299 1701.8297,-505.6 1704.3649,-504.1905 1706.533,-502.0543 1708.3307,-499.7405"/>
<polygon fill="#000000" stroke="#000000" points="1711.3598,-501.494 1713.421,-491.1015 1705.3289,-497.9403 1711.3598,-501.494"/>
</g>
<!-- p13 -->
<g id="node13" class="node">
<title>p13</title>
<ellipse fill="none" stroke="#000000" cx="1616.8297" cy="-487.6" rx="76.3916" ry="18"/>
<text text-anchor="middle" x="1616.8297" y="-483.4" font-family="Times,serif" font-size="14.00" fill="#000000">EXTRACT_SNPS</text>
</g>
<!-- p9&#45;&gt;p13 -->
<g id="edge12" class="edge">
<title>p9&#45;&gt;p13</title>
<path fill="none" stroke="#000000" d="M963.4006,-561.3983C970.0673,-559.1829 977.1173,-557.1019 983.8297,-555.6 1176.3426,-512.5242 1408.1076,-496.4594 1530.8144,-490.68"/>
<polygon fill="#000000" stroke="#000000" points="1531.0725,-494.1719 1540.9014,-490.2166 1530.7512,-487.1793 1531.0725,-494.1719"/>
</g>
<!-- p30 -->
<g id="node14" class="node">
<title>p30</title>
<ellipse fill="none" stroke="#000000" cx="863.8297" cy="-487.6" rx="81.92" ry="18"/>
<text text-anchor="middle" x="863.8297" y="-483.4" font-family="Times,serif" font-size="14.00" fill="#000000">EXTRACT_FASTA</text>
</g>
<!-- p9&#45;&gt;p30 -->
<g id="edge13" class="edge">
<title>p9&#45;&gt;p30</title>
<path fill="none" stroke="#000000" d="M918.0689,-556.1966C908.4275,-544.0031 895.3722,-527.4919 884.4861,-513.7242"/>
<polygon fill="#000000" stroke="#000000" points="886.986,-511.2428 878.0381,-505.5695 881.4951,-515.5845 886.986,-511.2428"/>
</g>
<!-- p35 -->
<g id="node15" class="node">
<title>p35</title>
<ellipse fill="none" stroke="#000000" cx="167.8297" cy="-401.6" rx="167.6596" ry="18"/>
<text text-anchor="middle" x="167.8297" y="-397.4" font-family="Times,serif" font-size="14.00" fill="#000000">RECOMBINATION_GUBBINS:GUBBINS</text>
</g>
<!-- p9&#45;&gt;p35 -->
<g id="edge14" class="edge">
<title>p9&#45;&gt;p35</title>
<path fill="none" stroke="#000000" d="M889.1758,-571.5189C779.4419,-565.0031 479.7825,-539.8245 248.8297,-451.6 231.6985,-445.0558 214.1994,-434.7902 199.8702,-425.259"/>
<polygon fill="#000000" stroke="#000000" points="201.6196,-422.2153 191.3895,-419.4593 197.6681,-427.9933 201.6196,-422.2153"/>
<text text-anchor="middle" x="452.3092" y="-483.4" font-family="Times,serif" font-size="14.00" fill="#000000">starter_tree</text>
</g>
<!-- p11 -->
<g id="node16" class="node">
<title>p11</title>
<ellipse fill="#000000" stroke="#000000" cx="738.8297" cy="-487.6" rx="1.8" ry="1.8"/>
</g>
<!-- p9&#45;&gt;p11 -->
<g id="edge15" class="edge">
<title>p9&#45;&gt;p11</title>
<path fill="none" stroke="#000000" d="M891.8354,-566.9464C864.0214,-561.3879 826.5681,-552.0132 795.8297,-537.6 773.6099,-527.1812 767.9195,-523.2128 750.8297,-505.6 748.7112,-503.4167 746.732,-500.813 745.016,-498.2734"/>
<polygon fill="#000000" stroke="#000000" points="747.8833,-496.2475 739.7631,-489.4421 741.8671,-499.826 747.8833,-496.2475"/>
</g>
<!-- p10 -->
<g id="node17" class="node">
<title>p10</title>
<ellipse fill="#000000" stroke="#000000" cx="761.8297" cy="-487.6" rx="1.8" ry="1.8"/>
</g>
<!-- p9&#45;&gt;p10 -->
<g id="edge16" class="edge">
<title>p9&#45;&gt;p10</title>
<path fill="none" stroke="#000000" d="M894.5467,-564.6992C859.8737,-554.9088 808.3638,-536.3402 772.8297,-505.6 770.5862,-503.6592 768.6612,-501.1445 767.0777,-498.6134"/>
<polygon fill="#000000" stroke="#000000" points="770.1505,-496.9325 762.5513,-489.5499 763.888,-500.0601 770.1505,-496.9325"/>
</g>
<!-- p50 -->
<g id="node53" class="node">
<title>p50</title>
<ellipse fill="none" stroke="#000000" cx="1106.8297" cy="-401.6" rx="138.2089" ry="18"/>
<text text-anchor="middle" x="1106.8297" y="-397.4" font-family="Times,serif" font-size="14.00" fill="#000000">RECOMBINATION_CFML:CFML</text>
</g>
<!-- p9&#45;&gt;p50 -->
<g id="edge63" class="edge">
<title>p9&#45;&gt;p50</title>
<path fill="none" stroke="#000000" d="M948.9281,-556.7947C979.8411,-526.4116 1045.1698,-462.2029 1081.3584,-426.6347"/>
<polygon fill="#000000" stroke="#000000" points="1083.9369,-429.0079 1088.6155,-419.502 1079.0301,-424.0155 1083.9369,-429.0079"/>
<text text-anchor="middle" x="1067.3092" y="-483.4" font-family="Times,serif" font-size="14.00" fill="#000000">starter_tree</text>
</g>
<!-- p16 -->
<g id="node18" class="node">
<title>p16</title>
<ellipse fill="none" stroke="#000000" cx="1883.8297" cy="-401.6" rx="3.5" ry="3.5"/>
<text text-anchor="middle" x="1869.44" y="-407.9" font-family="Times,serif" font-size="14.00" fill="#000000">mix</text>
</g>
<!-- p12&#45;&gt;p16 -->
<g id="edge18" class="edge">
<title>p12&#45;&gt;p16</title>
<path fill="none" stroke="#000000" d="M1718.3544,-487.1625C1738.4714,-484.6045 1838.6846,-471.0249 1861.8297,-451.6 1872.8192,-442.3768 1878.5031,-426.5937 1881.3143,-415.2246"/>
<polygon fill="#000000" stroke="#000000" points="1884.8021,-415.6349 1883.3524,-405.1397 1877.9408,-414.2482 1884.8021,-415.6349"/>
<text text-anchor="middle" x="1905.2677" y="-440.4" font-family="Times,serif" font-size="14.00" fill="#000000">ch_versions</text>
</g>
<!-- p13&#45;&gt;p16 -->
<g id="edge22" class="edge">
<title>p13&#45;&gt;p16</title>
<path fill="none" stroke="#000000" d="M1674.1771,-475.5227C1683.7424,-473.5296 1693.5642,-471.4962 1702.8297,-469.6 1742.7936,-461.4215 1754.3311,-465.0856 1792.8297,-451.6 1823.2533,-440.943 1855.5774,-420.7764 1872.301,-409.5863"/>
<polygon fill="#000000" stroke="#000000" points="1874.5914,-412.2597 1880.8613,-403.7192 1870.634,-406.4857 1874.5914,-412.2597"/>
</g>
<!-- p17 -->
<g id="node19" class="node">
<title>p17</title>
<ellipse fill="none" stroke="#000000" cx="1720.8297" cy="-401.6" rx="102.866" ry="18"/>
<text text-anchor="middle" x="1720.8297" y="-397.4" font-family="Times,serif" font-size="14.00" fill="#000000">PAIRWISE_DISTANCES</text>
</g>
<!-- p13&#45;&gt;p17 -->
<g id="edge19" class="edge">
<title>p13&#45;&gt;p17</title>
<path fill="none" stroke="#000000" d="M1637.8756,-470.1966C1653.2798,-457.4586 1674.3819,-440.0088 1691.4474,-425.8969"/>
<polygon fill="#000000" stroke="#000000" points="1693.982,-428.3426 1699.4581,-419.2727 1689.5212,-422.9481 1693.982,-428.3426"/>
</g>
<!-- p15 -->
<g id="node20" class="node">
<title>p15</title>
<ellipse fill="#000000" stroke="#000000" cx="1572.8297" cy="-401.6" rx="1.8" ry="1.8"/>
</g>
<!-- p13&#45;&gt;p15 -->
<g id="edge20" class="edge">
<title>p13&#45;&gt;p15</title>
<path fill="none" stroke="#000000" d="M1607.4984,-469.3616C1598.6693,-452.1046 1585.7105,-426.7761 1578.394,-412.4756"/>
<polygon fill="#000000" stroke="#000000" points="1581.4603,-410.7845 1573.7896,-403.4762 1575.2286,-413.9729 1581.4603,-410.7845"/>
</g>
<!-- p14 -->
<g id="node21" class="node">
<title>p14</title>
<ellipse fill="#000000" stroke="#000000" cx="1843.8297" cy="-401.6" rx="1.8" ry="1.8"/>
</g>
<!-- p13&#45;&gt;p14 -->
<g id="edge21" class="edge">
<title>p13&#45;&gt;p14</title>
<path fill="none" stroke="#000000" d="M1671.6434,-475.0118C1726.9218,-461.5077 1807.5886,-439.3365 1832.8297,-419.6 1835.1666,-417.7727 1837.1259,-415.2997 1838.7126,-412.7726"/>
<polygon fill="#000000" stroke="#000000" points="1841.9456,-414.1266 1843.1496,-403.6004 1835.6442,-411.0783 1841.9456,-414.1266"/>
</g>
<!-- p30&#45;&gt;p35 -->
<g id="edge39" class="edge">
<title>p30&#45;&gt;p35</title>
<path fill="none" stroke="#000000" d="M805.7903,-474.7085C794.8868,-472.6887 783.5464,-470.8568 772.8297,-469.6 564.7754,-445.2008 507.245,-492.7347 301.8434,-451.6 271.9398,-445.6114 239.8855,-433.8616 214.6261,-423.2565"/>
<polygon fill="#000000" stroke="#000000" points="215.867,-419.9805 205.2965,-419.2624 213.1121,-426.4156 215.867,-419.9805"/>
<text text-anchor="middle" x="330.8229" y="-440.4" font-family="Times,serif" font-size="14.00" fill="#000000">alignment</text>
</g>
<!-- p33 -->
<g id="node33" class="node">
<title>p33</title>
<ellipse fill="none" stroke="#000000" cx="211.8297" cy="-101.1" rx="3.5" ry="3.5"/>
<text text-anchor="middle" x="197.44" y="-107.4" font-family="Times,serif" font-size="14.00" fill="#000000">mix</text>
</g>
<!-- p30&#45;&gt;p33 -->
<g id="edge42" class="edge">
<title>p30&#45;&gt;p33</title>
<path fill="none" stroke="#000000" d="M803.7175,-475.1652C793.4328,-473.1939 782.8389,-471.2605 772.8297,-469.6 713.5495,-459.7653 697.7062,-463.6175 638.8297,-451.6 585.0801,-440.6289 228.4606,-346.8324 214.8297,-333.6 194.4552,-313.8212 195.8297,-300.9958 195.8297,-272.6 195.8297,-272.6 195.8297,-272.6 195.8297,-158.1 195.8297,-142.3854 201.5366,-125.1104 206.1338,-113.7438"/>
<polygon fill="#000000" stroke="#000000" points="209.4412,-114.9156 210.2371,-104.3507 203.0266,-112.1134 209.4412,-114.9156"/>
</g>
<!-- p32 -->
<g id="node34" class="node">
<title>p32</title>
<ellipse fill="#000000" stroke="#000000" cx="846.8297" cy="-401.6" rx="1.8" ry="1.8"/>
</g>
<!-- p30&#45;&gt;p32 -->
<g id="edge40" class="edge">
<title>p30&#45;&gt;p32</title>
<path fill="none" stroke="#000000" d="M860.2244,-469.3616C856.8814,-452.4498 852.006,-427.786 849.1517,-413.3467"/>
<polygon fill="#000000" stroke="#000000" points="852.5734,-412.6076 847.2006,-403.4762 845.7063,-413.9651 852.5734,-412.6076"/>
</g>
<!-- p31 -->
<g id="node35" class="node">
<title>p31</title>
<ellipse fill="#000000" stroke="#000000" cx="355.8297" cy="-401.6" rx="1.8" ry="1.8"/>
</g>
<!-- p30&#45;&gt;p31 -->
<g id="edge41" class="edge">
<title>p30&#45;&gt;p31</title>
<path fill="none" stroke="#000000" d="M805.7834,-474.7669C794.8805,-472.7413 783.5422,-470.8925 772.8297,-469.6 728.5504,-464.2577 407.2549,-478.6971 371.8297,-451.6 360.2583,-442.7489 356.8992,-425.4578 356.0083,-413.717"/>
<polygon fill="#000000" stroke="#000000" points="359.5032,-413.4714 355.7451,-403.5655 352.5056,-413.6529 359.5032,-413.4714"/>
</g>
<!-- p39 -->
<g id="node38" class="node">
<title>p39</title>
<ellipse fill="none" stroke="#000000" cx="455.8297" cy="-315.6" rx="232.3821" ry="18"/>
<text text-anchor="middle" x="455.8297" y="-311.4" font-family="Times,serif" font-size="14.00" fill="#000000">RECOMBINATION_GUBBINS:MASK_RECOMBINATION</text>
</g>
<!-- p30&#45;&gt;p39 -->
<g id="edge50" class="edge">
<title>p30&#45;&gt;p39</title>
<path fill="none" stroke="#000000" d="M804.786,-474.981C727.6059,-458.2525 599.852,-429.6742 579.8434,-419.6 540.2121,-399.6461 502.2873,-364.7381 479.0428,-340.9167"/>
<polygon fill="#000000" stroke="#000000" points="481.4769,-338.3981 472.0282,-333.605 476.4256,-343.2442 481.4769,-338.3981"/>
<text text-anchor="middle" x="608.8229" y="-397.4" font-family="Times,serif" font-size="14.00" fill="#000000">alignment</text>
</g>
<!-- p54 -->
<g id="node52" class="node">
<title>p54</title>
<ellipse fill="none" stroke="#000000" cx="1136.8297" cy="-315.6" rx="217.4066" ry="18"/>
<text text-anchor="middle" x="1136.8297" y="-311.4" font-family="Times,serif" font-size="14.00" fill="#000000">RECOMBINATION_CFML:MASK_RECOMBINATION</text>
</g>
<!-- p30&#45;&gt;p54 -->
<g id="edge69" class="edge">
<title>p30&#45;&gt;p54</title>
<path fill="none" stroke="#000000" d="M868.6794,-469.5419C876.129,-443.0557 890.8873,-395.5192 903.8434,-383.6 924.5037,-364.593 986.7786,-346.9495 1041.7493,-334.3996"/>
<polygon fill="#000000" stroke="#000000" points="1042.5718,-337.8021 1051.5612,-332.195 1041.0372,-330.9724 1042.5718,-337.8021"/>
<text text-anchor="middle" x="932.8229" y="-397.4" font-family="Times,serif" font-size="14.00" fill="#000000">alignment</text>
</g>
<!-- p30&#45;&gt;p50 -->
<g id="edge62" class="edge">
<title>p30&#45;&gt;p50</title>
<path fill="none" stroke="#000000" d="M881.9492,-469.9911C894.2281,-459.0398 911.3512,-445.5711 928.8434,-437.6 949.46,-428.2051 972.5278,-421.2479 995.0459,-416.1001"/>
<polygon fill="#000000" stroke="#000000" points="995.9714,-419.4807 1004.9969,-413.9317 994.4809,-412.6412 995.9714,-419.4807"/>
<text text-anchor="middle" x="957.8229" y="-440.4" font-family="Times,serif" font-size="14.00" fill="#000000">alignment</text>
</g>
<!-- p35&#45;&gt;p39 -->
<g id="edge45" class="edge">
<title>p35&#45;&gt;p39</title>
<path fill="none" stroke="#000000" d="M219.8923,-384.4033C265.3984,-370.3582 331.8551,-350.4847 382.6853,-335.7052"/>
<polygon fill="#000000" stroke="#000000" points="383.6795,-339.0612 392.3087,-332.9141 381.7295,-332.3383 383.6795,-339.0612"/>
</g>
<!-- p35&#45;&gt;p39 -->
<g id="edge46" class="edge">
<title>p35&#45;&gt;p39</title>
<path fill="none" stroke="#000000" d="M229.5237,-384.8142C277.6341,-370.9118 344.115,-351.0978 392.6069,-336.2294"/>
<polygon fill="#000000" stroke="#000000" points="393.8314,-339.5147 402.3612,-333.2304 391.7742,-332.8238 393.8314,-339.5147"/>
</g>
<!-- p38 -->
<g id="node39" class="node">
<title>p38</title>
<ellipse fill="#000000" stroke="#000000" cx="165.8297" cy="-315.6" rx="1.8" ry="1.8"/>
</g>
<!-- p35&#45;&gt;p38 -->
<g id="edge47" class="edge">
<title>p35&#45;&gt;p38</title>
<path fill="none" stroke="#000000" d="M167.4055,-383.3616C167.0163,-366.6223 166.4504,-342.2886 166.1132,-327.7919"/>
<polygon fill="#000000" stroke="#000000" points="169.605,-327.3921 165.8733,-317.4762 162.6069,-327.5549 169.605,-327.3921"/>
</g>
<!-- p37 -->
<g id="node40" class="node">
<title>p37</title>
<ellipse fill="#000000" stroke="#000000" cx="117.8297" cy="-315.6" rx="1.8" ry="1.8"/>
</g>
<!-- p35&#45;&gt;p37 -->
<g id="edge48" class="edge">
<title>p35&#45;&gt;p37</title>
<path fill="none" stroke="#000000" d="M157.226,-383.3616C147.1928,-366.1046 132.467,-340.7761 124.1527,-326.4756"/>
<polygon fill="#000000" stroke="#000000" points="126.9725,-324.3621 118.9205,-317.4762 120.921,-327.8805 126.9725,-324.3621"/>
</g>
<!-- p36 -->
<g id="node41" class="node">
<title>p36</title>
<ellipse fill="#000000" stroke="#000000" cx="142.8297" cy="-315.6" rx="1.8" ry="1.8"/>
</g>
<!-- p35&#45;&gt;p36 -->
<g id="edge49" class="edge">
<title>p35&#45;&gt;p36</title>
<path fill="none" stroke="#000000" d="M162.5278,-383.3616C157.6116,-366.4498 150.4419,-341.786 146.2444,-327.3467"/>
<polygon fill="#000000" stroke="#000000" points="149.5275,-326.1017 143.3751,-317.4762 142.8057,-328.0557 149.5275,-326.1017"/>
</g>
<!-- p20 -->
<g id="node22" class="node">
<title>p20</title>
<ellipse fill="none" stroke="#000000" cx="2056.8297" cy="-315.6" rx="3.5" ry="3.5"/>
<text text-anchor="middle" x="2042.44" y="-321.9" font-family="Times,serif" font-size="14.00" fill="#000000">mix</text>
</g>
<!-- p16&#45;&gt;p20 -->
<g id="edge23" class="edge">
<title>p16&#45;&gt;p20</title>
<path fill="none" stroke="#000000" d="M1887.4495,-401.1757C1908.1095,-398.6911 2011.0291,-385.4511 2034.8297,-365.6 2045.8475,-356.4105 2051.5262,-340.6213 2054.3284,-329.2416"/>
<polygon fill="#000000" stroke="#000000" points="2057.8186,-329.6385 2056.3568,-319.145 2050.9557,-328.2597 2057.8186,-329.6385"/>
<text text-anchor="middle" x="2078.2677" y="-354.4" font-family="Times,serif" font-size="14.00" fill="#000000">ch_versions</text>
</g>
<!-- p17&#45;&gt;p26 -->
<g id="edge34" class="edge">
<title>p17&#45;&gt;p26</title>
<path fill="none" stroke="#000000" d="M1720.8297,-383.3616C1720.8297,-371.9597 1720.8297,-357.0342 1720.8297,-344.094"/>
<polygon fill="#000000" stroke="#000000" points="1724.3298,-343.8121 1720.8297,-333.8121 1717.3298,-343.8121 1724.3298,-343.8121"/>
<text text-anchor="middle" x="1759.7125" y="-354.4" font-family="Times,serif" font-size="14.00" fill="#000000">snp_distances</text>
</g>
<!-- p17&#45;&gt;p20 -->
<g id="edge27" class="edge">
<title>p17&#45;&gt;p20</title>
<path fill="none" stroke="#000000" d="M1796.4195,-389.3284C1808.5903,-387.388 1821.055,-385.4219 1832.8297,-383.6 1886.5599,-375.2862 1901.0563,-378.6774 1953.8297,-365.6 1995.4433,-355.288 2010.9733,-359.9015 2044.8297,-333.6 2046.9022,-331.99 2048.7373,-329.9179 2050.3102,-327.7558"/>
<polygon fill="#000000" stroke="#000000" points="2053.4766,-329.2717 2055.4493,-318.8621 2047.4157,-325.7694 2053.4766,-329.2717"/>
</g>
<!-- p21 -->
<g id="node23" class="node">
<title>p21</title>
<ellipse fill="none" stroke="#000000" cx="1922.8297" cy="-315.6" rx="91.4024" ry="18"/>
<text text-anchor="middle" x="1922.8297" y="-311.4" font-family="Times,serif" font-size="14.00" fill="#000000">DISTANCE_MATRIX</text>
</g>
<!-- p17&#45;&gt;p21 -->
<g id="edge24" class="edge">
<title>p17&#45;&gt;p21</title>
<path fill="none" stroke="#000000" d="M1760.2569,-384.8142C1793.0009,-370.8737 1839.7069,-350.9889 1874.662,-336.107"/>
<polygon fill="#000000" stroke="#000000" points="1876.3584,-339.1889 1884.1882,-332.0513 1873.6163,-332.7483 1876.3584,-339.1889"/>
</g>
<!-- p19 -->
<g id="node24" class="node">
<title>p19</title>
<ellipse fill="#000000" stroke="#000000" cx="1583.8297" cy="-315.6" rx="1.8" ry="1.8"/>
</g>
<!-- p17&#45;&gt;p19 -->
<g id="edge25" class="edge">
<title>p17&#45;&gt;p19</title>
<path fill="none" stroke="#000000" d="M1702.711,-383.6404C1691.0433,-372.9711 1675.0668,-359.9382 1658.8297,-351.6 1632.164,-337.9066 1617.3827,-352.1424 1593.8297,-333.6 1591.6388,-331.8752 1589.8546,-329.5304 1588.4327,-327.1036"/>
<polygon fill="#000000" stroke="#000000" points="1591.5274,-325.4382 1584.381,-317.6164 1585.0899,-328.1875 1591.5274,-325.4382"/>
</g>
<!-- p18 -->
<g id="node25" class="node">
<title>p18</title>
<ellipse fill="#000000" stroke="#000000" cx="2033.8297" cy="-315.6" rx="1.8" ry="1.8"/>
</g>
<!-- p17&#45;&gt;p18 -->
<g id="edge26" class="edge">
<title>p17&#45;&gt;p18</title>
<path fill="none" stroke="#000000" d="M1792.0611,-388.5836C1875.3059,-372.9039 2004.1282,-347.0037 2022.8297,-333.6 2025.2408,-331.8719 2027.2274,-329.4353 2028.8167,-326.9116"/>
<polygon fill="#000000" stroke="#000000" points="2032.0869,-328.1825 2033.1826,-317.6444 2025.7545,-325.1992 2032.0869,-328.1825"/>
</g>
<!-- p25 -->
<g id="node26" class="node">
<title>p25</title>
<ellipse fill="none" stroke="#000000" cx="1959.8297" cy="-229.6" rx="3.5" ry="3.5"/>
<text text-anchor="middle" x="1945.44" y="-235.9" font-family="Times,serif" font-size="14.00" fill="#000000">mix</text>
</g>
<!-- p20&#45;&gt;p25 -->
<g id="edge28" class="edge">
<title>p20&#45;&gt;p25</title>
<path fill="none" stroke="#000000" d="M2055.0622,-312.3301C2052.9292,-308.5494 2049.0937,-302.2509 2044.8297,-297.6 2021.7739,-272.4524 1988.9649,-248.9561 1971.6244,-237.2882"/>
<polygon fill="#000000" stroke="#000000" points="1973.3286,-234.2197 1963.052,-231.6428 1969.4786,-240.0659 1973.3286,-234.2197"/>
<text text-anchor="middle" x="2058.2677" y="-268.4" font-family="Times,serif" font-size="14.00" fill="#000000">ch_versions</text>
</g>
<!-- p21&#45;&gt;p25 -->
<g id="edge32" class="edge">
<title>p21&#45;&gt;p25</title>
<path fill="none" stroke="#000000" d="M1933.654,-297.6097C1936.8301,-291.9536 1940.1631,-285.613 1942.8297,-279.6 1948.1728,-267.5518 1952.8756,-253.2689 1955.9725,-243.0598"/>
<polygon fill="#000000" stroke="#000000" points="1959.3718,-243.9047 1958.8123,-233.3246 1952.6519,-241.9443 1959.3718,-243.9047"/>
</g>
<!-- p24 -->
<g id="node27" class="node">
<title>p24</title>
<ellipse fill="#000000" stroke="#000000" cx="1909.8297" cy="-229.6" rx="1.8" ry="1.8"/>
</g>
<!-- p21&#45;&gt;p24 -->
<g id="edge29" class="edge">
<title>p21&#45;&gt;p24</title>
<path fill="none" stroke="#000000" d="M1920.0727,-297.3616C1917.5424,-280.6223 1913.864,-256.2886 1911.6727,-241.7919"/>
<polygon fill="#000000" stroke="#000000" points="1915.0687,-240.8407 1910.1133,-231.4762 1908.1474,-241.887 1915.0687,-240.8407"/>
</g>
<!-- p23 -->
<g id="node28" class="node">
<title>p23</title>
<ellipse fill="#000000" stroke="#000000" cx="1934.8297" cy="-229.6" rx="1.8" ry="1.8"/>
</g>
<!-- p21&#45;&gt;p23 -->
<g id="edge30" class="edge">
<title>p21&#45;&gt;p23</title>
<path fill="none" stroke="#000000" d="M1925.3746,-297.3616C1927.7103,-280.6223 1931.1057,-256.2886 1933.1285,-241.7919"/>
<polygon fill="#000000" stroke="#000000" points="1936.6523,-241.864 1934.5679,-231.4762 1929.7194,-240.8965 1936.6523,-241.864"/>
</g>
<!-- p22 -->
<g id="node29" class="node">
<title>p22</title>
<ellipse fill="#000000" stroke="#000000" cx="1884.8297" cy="-229.6" rx="1.8" ry="1.8"/>
</g>
<!-- p21&#45;&gt;p22 -->
<g id="edge31" class="edge">
<title>p21&#45;&gt;p22</title>
<path fill="none" stroke="#000000" d="M1914.7709,-297.3616C1907.2219,-280.2772 1896.1775,-255.2819 1889.8262,-240.9079"/>
<polygon fill="#000000" stroke="#000000" points="1892.9018,-239.2085 1885.6587,-231.4762 1886.499,-242.0377 1892.9018,-239.2085"/>
</g>
<!-- p25&#45;&gt;p29 -->
<g id="edge33" class="edge">
<title>p25&#45;&gt;p29</title>
<path fill="none" stroke="#000000" d="M1958.1619,-226.2237C1955.9388,-222.0942 1951.6038,-215.2094 1945.8297,-211.6 1904.5252,-185.7804 1751.8529,-165.4168 1705.3565,-159.7065"/>
<polygon fill="#000000" stroke="#000000" points="1705.7587,-156.2297 1695.4127,-158.5125 1704.9241,-163.1798 1705.7587,-156.2297"/>
<text text-anchor="middle" x="1927.2677" y="-182.4" font-family="Times,serif" font-size="14.00" fill="#000000">ch_versions</text>
</g>
<!-- p29&#45;&gt;p33 -->
<g id="edge38" class="edge">
<title>p29&#45;&gt;p33</title>
<path fill="none" stroke="#000000" d="M1688.0932,-157.9561C1611.1764,-154.9938 370.9827,-107.2295 225.69,-101.6338"/>
<polygon fill="#000000" stroke="#000000" points="225.4798,-98.1232 215.3525,-101.2357 225.2103,-105.118 225.4798,-98.1232"/>
<text text-anchor="middle" x="1161.2677" y="-125.4" font-family="Times,serif" font-size="14.00" fill="#000000">ch_versions</text>
</g>
<!-- p64 -->
<g id="node36" class="node">
<title>p64</title>
<ellipse fill="none" stroke="#000000" cx="211.8297" cy="-44.1" rx="3.5" ry="3.5"/>
<text text-anchor="middle" x="178.7848" y="-50.4" font-family="Times,serif" font-size="14.00" fill="#000000">collectFile</text>
</g>
<!-- p33&#45;&gt;p64 -->
<g id="edge43" class="edge">
<title>p33&#45;&gt;p64</title>
<path fill="none" stroke="#000000" d="M211.8297,-97.3601C211.8297,-89.477 211.8297,-70.813 211.8297,-57.8182"/>
<polygon fill="#000000" stroke="#000000" points="215.3298,-57.6333 211.8297,-47.6333 208.3298,-57.6334 215.3298,-57.6333"/>
<text text-anchor="middle" x="245.2677" y="-68.4" font-family="Times,serif" font-size="14.00" fill="#000000">ch_versions</text>
</g>
<!-- p65 -->
<g id="node66" class="node">
<title>p65</title>
<ellipse fill="#000000" stroke="#000000" cx="211.8297" cy="-1.8" rx="1.8" ry="1.8"/>
</g>
<!-- p64&#45;&gt;p65 -->
<g id="edge80" class="edge">
<title>p64&#45;&gt;p65</title>
<path fill="none" stroke="#000000" d="M211.8297,-40.4935C211.8297,-34.6271 211.8297,-22.7636 211.8297,-13.7108"/>
<polygon fill="#000000" stroke="#000000" points="215.3298,-13.7066 211.8297,-3.7066 208.3298,-13.7067 215.3298,-13.7066"/>
</g>
<!-- p34 -->
<g id="node37" class="node">
<title>p34</title>
<ellipse fill="#000000" stroke="#000000" cx="648.8297" cy="-401.6" rx="3.6" ry="3.6"/>
<text text-anchor="middle" x="683.9143" y="-408" font-family="Times,serif" font-size="14.00" fill="#000000">Channel.from</text>
</g>
<!-- p34&#45;&gt;p39 -->
<g id="edge44" class="edge">
<title>p34&#45;&gt;p39</title>
<path fill="none" stroke="#000000" d="M645.4798,-400.1073C629.0341,-392.7791 555.6007,-360.0576 505.0898,-337.5501"/>
<polygon fill="#000000" stroke="#000000" points="506.5027,-334.348 495.9439,-333.4747 503.6536,-340.7419 506.5027,-334.348"/>
<text text-anchor="middle" x="629.7574" y="-354.4" font-family="Times,serif" font-size="14.00" fill="#000000">recombination_method</text>
</g>
<!-- p44 -->
<g id="node42" class="node">
<title>p44</title>
<ellipse fill="none" stroke="#000000" cx="672.8297" cy="-229.6" rx="181.1726" ry="18"/>
<text text-anchor="middle" x="672.8297" y="-225.4" font-family="Times,serif" font-size="14.00" fill="#000000">RECOMBINATION_GUBBINS:INFER_TREE</text>
</g>
<!-- p34&#45;&gt;p44 -->
<g id="edge55" class="edge">
<title>p34&#45;&gt;p44</title>
<path fill="none" stroke="#000000" d="M652.0063,-399.7822C660.3083,-394.9375 683.0978,-381.0284 698.8297,-365.6 728.5373,-336.4655 730.9261,-320.9196 735.8297,-279.6 736.563,-273.4211 738.9528,-270.9817 735.8297,-265.6 733.1711,-261.0188 729.6863,-256.9713 725.7184,-253.4058"/>
<polygon fill="#000000" stroke="#000000" points="727.6384,-250.4665 717.5828,-247.1296 723.3627,-256.009 727.6384,-250.4665"/>
<text text-anchor="middle" x="798.7574" y="-311.4" font-family="Times,serif" font-size="14.00" fill="#000000">recombination_method</text>
</g>
<!-- p39&#45;&gt;p44 -->
<g id="edge51" class="edge">
<title>p39&#45;&gt;p44</title>
<path fill="none" stroke="#000000" d="M500.5291,-297.885C534.9246,-284.2536 582.5872,-265.3643 619.0658,-250.9073"/>
<polygon fill="#000000" stroke="#000000" points="620.5528,-254.0829 628.5598,-247.1448 617.9737,-247.5754 620.5528,-254.0829"/>
</g>
<!-- p42 -->
<g id="node43" class="node">
<title>p42</title>
<ellipse fill="#000000" stroke="#000000" cx="446.8297" cy="-229.6" rx="1.8" ry="1.8"/>
</g>
<!-- p39&#45;&gt;p42 -->
<g id="edge52" class="edge">
<title>p39&#45;&gt;p42</title>
<path fill="none" stroke="#000000" d="M453.921,-297.3616C452.1692,-280.6223 449.6227,-256.2886 448.1056,-241.7919"/>
<polygon fill="#000000" stroke="#000000" points="451.5479,-241.0576 447.026,-231.4762 444.586,-241.7862 451.5479,-241.0576"/>
</g>
<!-- p41 -->
<g id="node44" class="node">
<title>p41</title>
<ellipse fill="#000000" stroke="#000000" cx="471.8297" cy="-229.6" rx="1.8" ry="1.8"/>
</g>
<!-- p39&#45;&gt;p41 -->
<g id="edge53" class="edge">
<title>p39&#45;&gt;p41</title>
<path fill="none" stroke="#000000" d="M459.2229,-297.3616C462.3693,-280.4498 466.9579,-255.786 469.6443,-241.3467"/>
<polygon fill="#000000" stroke="#000000" points="473.0924,-241.9477 471.4806,-231.4762 466.2105,-240.6673 473.0924,-241.9477"/>
</g>
<!-- p40 -->
<g id="node45" class="node">
<title>p40</title>
<ellipse fill="#000000" stroke="#000000" cx="421.8297" cy="-229.6" rx="1.8" ry="1.8"/>
</g>
<!-- p39&#45;&gt;p40 -->
<g id="edge54" class="edge">
<title>p39&#45;&gt;p40</title>
<path fill="none" stroke="#000000" d="M448.6192,-297.3616C441.8649,-280.2772 431.983,-255.2819 426.3003,-240.9079"/>
<polygon fill="#000000" stroke="#000000" points="429.503,-239.489 422.5715,-231.4762 422.9932,-242.0627 429.503,-239.489"/>
</g>
<!-- p48 -->
<g id="node47" class="node">
<title>p48</title>
<ellipse fill="#000000" stroke="#000000" cx="634.8297" cy="-158.1" rx="1.8" ry="1.8"/>
</g>
<!-- p44&#45;&gt;p48 -->
<g id="edge57" class="edge">
<title>p44&#45;&gt;p48</title>
<path fill="none" stroke="#000000" d="M663.2407,-211.5575C656.0607,-198.0477 646.4818,-180.0244 640.4851,-168.7411"/>
<polygon fill="#000000" stroke="#000000" points="643.567,-167.082 635.7833,-159.8942 637.3857,-170.3672 643.567,-167.082"/>
</g>
<!-- p47 -->
<g id="node48" class="node">
<title>p47</title>
<ellipse fill="#000000" stroke="#000000" cx="659.8297" cy="-158.1" rx="1.8" ry="1.8"/>
</g>
<!-- p44&#45;&gt;p47 -->
<g id="edge58" class="edge">
<title>p44&#45;&gt;p47</title>
<path fill="none" stroke="#000000" d="M669.5492,-211.5575C667.1705,-198.4744 664.0221,-181.1582 661.9624,-169.8298"/>
<polygon fill="#000000" stroke="#000000" points="665.3884,-169.1068 660.1559,-159.8942 658.5013,-170.359 665.3884,-169.1068"/>
</g>
<!-- p46 -->
<g id="node49" class="node">
<title>p46</title>
<ellipse fill="#000000" stroke="#000000" cx="684.8297" cy="-158.1" rx="1.8" ry="1.8"/>
</g>
<!-- p44&#45;&gt;p46 -->
<g id="edge59" class="edge">
<title>p44&#45;&gt;p46</title>
<path fill="none" stroke="#000000" d="M675.8578,-211.5575C678.0536,-198.4744 680.9598,-181.1582 682.8611,-169.8298"/>
<polygon fill="#000000" stroke="#000000" points="686.325,-170.3356 684.5286,-159.8942 679.4216,-169.1769 686.325,-170.3356"/>
</g>
<!-- p45 -->
<g id="node50" class="node">
<title>p45</title>
<ellipse fill="#000000" stroke="#000000" cx="709.8297" cy="-158.1" rx="1.8" ry="1.8"/>
</g>
<!-- p44&#45;&gt;p45 -->
<g id="edge60" class="edge">
<title>p44&#45;&gt;p45</title>
<path fill="none" stroke="#000000" d="M684.5597,-211.5878C688.0462,-205.9308 691.7528,-199.5952 694.8297,-193.6 698.8508,-185.7649 702.7024,-176.602 705.4957,-169.5479"/>
<polygon fill="#000000" stroke="#000000" points="708.8171,-170.6609 709.1156,-160.0703 702.2779,-168.1632 708.8171,-170.6609"/>
</g>
<!-- p43 -->
<g id="node46" class="node">
<title>p43</title>
<ellipse fill="#000000" stroke="#000000" cx="709.8297" cy="-315.6" rx="3.6" ry="3.6"/>
</g>
<!-- p43&#45;&gt;p44 -->
<g id="edge56" class="edge">
<title>p43&#45;&gt;p44</title>
<path fill="none" stroke="#000000" d="M707.9791,-312.2224C705.7285,-308.3405 701.63,-301.947 696.8297,-297.6 685.0281,-286.9129 673.7981,-293.3997 665.857,-279.6 662.0703,-273.0195 661.6446,-265.1674 662.739,-257.6577"/>
<polygon fill="#000000" stroke="#000000" points="666.1801,-258.31 665.0005,-247.781 659.3567,-256.7475 666.1801,-258.31"/>
<text text-anchor="middle" x="701.816" y="-268.4" font-family="Times,serif" font-size="14.00" fill="#000000">tree_method</text>
</g>
<!-- p49 -->
<g id="node51" class="node">
<title>p49</title>
<ellipse fill="#000000" stroke="#000000" cx="1350.8297" cy="-401.6" rx="3.6" ry="3.6"/>
<text text-anchor="middle" x="1308.5451" y="-408" font-family="Times,serif" font-size="14.00" fill="#000000">Channel.from</text>
</g>
<!-- p49&#45;&gt;p54 -->
<g id="edge61" class="edge">
<title>p49&#45;&gt;p54</title>
<path fill="none" stroke="#000000" d="M1347.1323,-400.8975C1334.2649,-398.4563 1290.2441,-390.1341 1253.8297,-383.6 1207.72,-375.3263 1184.4842,-397.28 1149.9742,-365.6 1143.8375,-359.9665 1140.4228,-351.8458 1138.5629,-343.7818"/>
<polygon fill="#000000" stroke="#000000" points="1141.9989,-343.1041 1136.9509,-333.7892 1135.0883,-344.219 1141.9989,-343.1041"/>
<text text-anchor="middle" x="1214.7574" y="-354.4" font-family="Times,serif" font-size="14.00" fill="#000000">recombination_method</text>
</g>
<!-- p59 -->
<g id="node57" class="node">
<title>p59</title>
<ellipse fill="none" stroke="#000000" cx="1465.8297" cy="-229.6" rx="166.1973" ry="18"/>
<text text-anchor="middle" x="1465.8297" y="-225.4" font-family="Times,serif" font-size="14.00" fill="#000000">RECOMBINATION_CFML:INFER_TREE</text>
</g>
<!-- p49&#45;&gt;p59 -->
<g id="edge74" class="edge">
<title>p49&#45;&gt;p59</title>
<path fill="none" stroke="#000000" d="M1354.1145,-399.9287C1362.6648,-395.4377 1385.9127,-382.3088 1399.8297,-365.6 1427.1749,-332.7691 1446.4325,-286.6924 1456.8296,-257.4955"/>
<polygon fill="#000000" stroke="#000000" points="1460.1799,-258.5163 1460.1365,-247.9215 1453.5634,-256.2309 1460.1799,-258.5163"/>
<text text-anchor="middle" x="1504.7574" y="-311.4" font-family="Times,serif" font-size="14.00" fill="#000000">recombination_method</text>
</g>
<!-- p54&#45;&gt;p59 -->
<g id="edge70" class="edge">
<title>p54&#45;&gt;p59</title>
<path fill="none" stroke="#000000" d="M1208.3343,-298.5133C1232.3616,-292.6588 1259.2887,-285.9747 1283.8297,-279.6 1321.0668,-269.9274 1362.4303,-258.6099 1396.3025,-249.1909"/>
<polygon fill="#000000" stroke="#000000" points="1397.4093,-252.5159 1406.1032,-246.4605 1395.5307,-245.7727 1397.4093,-252.5159"/>
</g>
<!-- p57 -->
<g id="node58" class="node">
<title>p57</title>
<ellipse fill="#000000" stroke="#000000" cx="1060.8297" cy="-229.6" rx="1.8" ry="1.8"/>
</g>
<!-- p54&#45;&gt;p57 -->
<g id="edge71" class="edge">
<title>p54&#45;&gt;p57</title>
<path fill="none" stroke="#000000" d="M1107.1467,-297.6981C1099.9357,-292.4594 1092.6379,-286.3146 1086.8297,-279.6 1076.7083,-267.8992 1069.1708,-251.5768 1064.8867,-240.8063"/>
<polygon fill="#000000" stroke="#000000" points="1068.1338,-239.4956 1061.3921,-231.3224 1061.5655,-241.9158 1068.1338,-239.4956"/>
</g>
<!-- p56 -->
<g id="node59" class="node">
<title>p56</title>
<ellipse fill="#000000" stroke="#000000" cx="1279.8297" cy="-229.6" rx="1.8" ry="1.8"/>
</g>
<!-- p54&#45;&gt;p56 -->
<g id="edge72" class="edge">
<title>p54&#45;&gt;p56</title>
<path fill="none" stroke="#000000" d="M1220.5514,-298.9645C1240.6884,-293.4926 1258.5101,-286.9132 1265.8297,-279.6 1275.9132,-269.5252 1278.8813,-252.8202 1279.677,-241.5193"/>
<polygon fill="#000000" stroke="#000000" points="1283.1775,-241.5348 1279.9093,-231.4566 1276.1794,-241.3732 1283.1775,-241.5348"/>
</g>
<!-- p55 -->
<g id="node60" class="node">
<title>p55</title>
<ellipse fill="#000000" stroke="#000000" cx="1093.8297" cy="-229.6" rx="1.8" ry="1.8"/>
</g>
<!-- p54&#45;&gt;p55 -->
<g id="edge73" class="edge">
<title>p54&#45;&gt;p55</title>
<path fill="none" stroke="#000000" d="M1108.7317,-297.4261C1103.1086,-292.3733 1097.9527,-286.382 1094.7535,-279.6 1089.128,-267.6744 1089.8521,-252.3008 1091.3719,-241.7677"/>
<polygon fill="#000000" stroke="#000000" points="1094.8683,-242.1172 1093.3043,-231.6384 1087.9923,-240.8053 1094.8683,-242.1172"/>
<text text-anchor="middle" x="1179.3678" y="-268.4" font-family="Times,serif" font-size="14.00" fill="#000000">mask_recombination_versions</text>
</g>
<!-- p50&#45;&gt;p54 -->
<g id="edge64" class="edge">
<title>p50&#45;&gt;p54</title>
<path fill="none" stroke="#000000" d="M1107.5559,-383.3616C1110.4286,-371.7316 1115.5243,-356.4357 1120.8039,-343.32"/>
<polygon fill="#000000" stroke="#000000" points="1124.1544,-344.3845 1124.8433,-333.8121 1117.7117,-341.6473 1124.1544,-344.3845"/>
</g>
<!-- p50&#45;&gt;p54 -->
<g id="edge65" class="edge">
<title>p50&#45;&gt;p54</title>
<path fill="none" stroke="#000000" d="M1118.8279,-383.3616C1124.0178,-371.8456 1129.5357,-356.7353 1133.4016,-343.7064"/>
<polygon fill="#000000" stroke="#000000" points="1136.8455,-344.3814 1136.1099,-333.8121 1130.0939,-342.5332 1136.8455,-344.3814"/>
</g>
<!-- p53 -->
<g id="node54" class="node">
<title>p53</title>
<ellipse fill="#000000" stroke="#000000" cx="1395.8297" cy="-315.6" rx="1.8" ry="1.8"/>
</g>
<!-- p50&#45;&gt;p53 -->
<g id="edge66" class="edge">
<title>p50&#45;&gt;p53</title>
<path fill="none" stroke="#000000" d="M1225.2132,-392.171C1294.025,-385.6361 1369.5707,-376.222 1381.8297,-365.6 1392.6024,-356.2658 1395.4083,-339.3865 1395.9792,-327.8441"/>
<polygon fill="#000000" stroke="#000000" points="1399.4789,-327.5133 1395.9662,-317.5178 1392.4789,-327.5222 1399.4789,-327.5133"/>
</g>
<!-- p52 -->
<g id="node55" class="node">
<title>p52</title>
<ellipse fill="#000000" stroke="#000000" cx="899.8297" cy="-315.6" rx="1.8" ry="1.8"/>
</g>
<!-- p50&#45;&gt;p52 -->
<g id="edge67" class="edge">
<title>p50&#45;&gt;p52</title>
<path fill="none" stroke="#000000" d="M1026.2225,-386.866C988.1565,-376.7916 943.9279,-360.2611 910.8297,-333.6 908.5195,-331.7391 906.57,-329.2538 904.9842,-326.7254"/>
<polygon fill="#000000" stroke="#000000" points="908.0543,-325.036 900.5217,-317.5854 901.7639,-328.1072 908.0543,-325.036"/>
</g>
<!-- p51 -->
<g id="node56" class="node">
<title>p51</title>
<ellipse fill="#000000" stroke="#000000" cx="1373.8297" cy="-315.6" rx="1.8" ry="1.8"/>
</g>
<!-- p50&#45;&gt;p51 -->
<g id="edge68" class="edge">
<title>p50&#45;&gt;p51</title>
<path fill="none" stroke="#000000" d="M1200.602,-388.2528C1226.7908,-382.8824 1254.892,-375.5336 1279.8297,-365.6 1290.8354,-361.216 1291.7024,-356.4468 1302.5123,-351.6 1328.0398,-340.1544 1340.6626,-350.6668 1362.8297,-333.6 1365.1802,-331.7903 1367.1445,-329.3237 1368.7317,-326.7972"/>
<polygon fill="#000000" stroke="#000000" points="1371.9714,-328.1366 1373.1556,-317.6082 1365.6642,-325.1001 1371.9714,-328.1366"/>
<text text-anchor="middle" x="1341.4884" y="-354.4" font-family="Times,serif" font-size="14.00" fill="#000000">cfml_versions</text>
</g>
<!-- p63 -->
<g id="node62" class="node">
<title>p63</title>
<ellipse fill="#000000" stroke="#000000" cx="1527.8297" cy="-158.1" rx="1.8" ry="1.8"/>
</g>
<!-- p59&#45;&gt;p63 -->
<g id="edge76" class="edge">
<title>p59&#45;&gt;p63</title>
<path fill="none" stroke="#000000" d="M1495.0321,-211.7282C1501.8643,-206.5269 1508.6504,-200.3923 1513.8297,-193.6 1519.219,-186.5323 1522.8046,-177.123 1524.9968,-169.7673"/>
<polygon fill="#000000" stroke="#000000" points="1528.4347,-170.4481 1527.4859,-159.8958 1521.6471,-168.7366 1528.4347,-170.4481"/>
</g>
<!-- p62 -->
<g id="node63" class="node">
<title>p62</title>
<ellipse fill="#000000" stroke="#000000" cx="1552.8297" cy="-158.1" rx="1.8" ry="1.8"/>
</g>
<!-- p59&#45;&gt;p62 -->
<g id="edge77" class="edge">
<title>p59&#45;&gt;p62</title>
<path fill="none" stroke="#000000" d="M1505.1563,-212.0403C1514.2055,-206.9006 1523.3558,-200.7163 1530.8297,-193.6 1538.1353,-186.6439 1543.9979,-176.7637 1547.8283,-169.1921"/>
<polygon fill="#000000" stroke="#000000" points="1551.0825,-170.4931 1552.09,-159.9462 1544.7253,-167.5628 1551.0825,-170.4931"/>
</g>
<!-- p61 -->
<g id="node64" class="node">
<title>p61</title>
<ellipse fill="#000000" stroke="#000000" cx="1371.8297" cy="-158.1" rx="1.8" ry="1.8"/>
</g>
<!-- p59&#45;&gt;p61 -->
<g id="edge78" class="edge">
<title>p59&#45;&gt;p61</title>
<path fill="none" stroke="#000000" d="M1425.4204,-212.0507C1415.8289,-206.8777 1406.0155,-200.6756 1397.8297,-193.6 1389.5974,-186.4843 1382.477,-176.2969 1377.7796,-168.6588"/>
<polygon fill="#000000" stroke="#000000" points="1380.7948,-166.8809 1372.784,-159.947 1374.7223,-170.3631 1380.7948,-166.8809"/>
</g>
<!-- p60 -->
<g id="node65" class="node">
<title>p60</title>
<ellipse fill="#000000" stroke="#000000" cx="1404.8297" cy="-158.1" rx="1.8" ry="1.8"/>
</g>
<!-- p59&#45;&gt;p60 -->
<g id="edge79" class="edge">
<title>p59&#45;&gt;p60</title>
<path fill="none" stroke="#000000" d="M1423.8789,-212.05C1416.6724,-207.1429 1410.1134,-201.0543 1405.7604,-193.6 1401.5894,-186.4575 1401.5344,-177.0518 1402.4269,-169.7165"/>
<polygon fill="#000000" stroke="#000000" points="1405.866,-170.3666 1404.3186,-159.8853 1398.9921,-169.0439 1405.866,-170.3666"/>
<text text-anchor="middle" x="1458.8644" y="-182.4" font-family="Times,serif" font-size="14.00" fill="#000000">infer_tree_versions</text>
</g>
<!-- p58 -->
<g id="node61" class="node">
<title>p58</title>
<ellipse fill="#000000" stroke="#000000" cx="1606.8297" cy="-315.6" rx="3.6" ry="3.6"/>
</g>
<!-- p58&#45;&gt;p59 -->
<g id="edge75" class="edge">
<title>p58&#45;&gt;p59</title>
<path fill="none" stroke="#000000" d="M1605.2115,-312.1796C1603.2187,-308.2575 1599.5149,-301.8263 1594.8297,-297.6 1573.2433,-278.1276 1545.0673,-262.4424 1520.5564,-251.0647"/>
<polygon fill="#000000" stroke="#000000" points="1521.9178,-247.8392 1511.3633,-246.9161 1519.0385,-254.2197 1521.9178,-247.8392"/>
<text text-anchor="middle" x="1603.816" y="-268.4" font-family="Times,serif" font-size="14.00" fill="#000000">tree_method</text>
</g>
</g>
</svg>
